<svg version="1.2" xmlns="http://www.w3.org/2000/svg" viewBox="0 0 870 148" width="870" height="148">
	<title>blockrent</title>
	<style>
		.s0 { fill: #4f39f6 } 
	</style>
	<path class="s0" d="m226.5 10.7c3.8-0.4 7.5-0.1 11.3 0.4 17.7 2.5 33.5 10.9 44.3 25.4q0.9 1.3 1.8 2.6 0.8 1.3 1.6 2.6 0.8 1.3 1.5 2.7 0.8 1.4 1.4 2.8 0.7 1.4 1.3 2.8 0.6 1.5 1.1 2.9 0.5 1.5 1 3 0.4 1.5 0.8 3 0.4 1.5 0.7 3 0.3 1.6 0.5 3.1 0.2 1.5 0.4 3.1 0.1 1.5 0.2 3.1 0.1 1.5 0 3.1 0 1.5 0 3.1-0.1 1.6-0.3 3.1-0.1 1.5-0.4 3.1c-2.4 15.8-12.1 31-25 40.3q-1.3 1-2.6 1.8-1.3 0.9-2.7 1.7-1.4 0.8-2.8 1.5-1.4 0.7-2.8 1.4-1.5 0.7-2.9 1.3-1.5 0.5-3 1.1-1.5 0.5-3 0.9-1.5 0.4-3.1 0.8-1.5 0.4-3.1 0.7-1.5 0.3-3.1 0.5-1.6 0.2-3.2 0.3-1.5 0.1-3.1 0.2-1.6 0-3.2 0-1.6 0-3.1-0.1-1.6-0.1-3.2-0.3-1.6-0.2-3.1-0.4c-18.2-3.1-32.8-13.9-43.3-28.6 0.6 8.5 0.6 16.9 0.6 25.3-23.4 0.5-46.9 0.1-70.4 0-1.3-1.8-1-7.4-1.1-9.7-0.1-10.3 1-20.5 0.9-30.8 0-24.5-0.8-49-0.2-73.5q16.4-0.1 32.8 0.3v86.2l36.1 0.5c-3.8-6.8-6.5-14.8-7.6-22.5-2.5-16.7 1.4-33.2 11.5-46.7 11.4-15.3 28.1-22.5 46.5-25.1zm-24.8 63.7c5.8 3.4 24.2 15.7 29.9 17q14.1-8.7 28.5-17c-2.8-5.6-26.2-45.3-29.4-48.4l-21 35c-2.6 4.5-5.6 8.8-8 13.4zm29.4 47.2c5.4-8.5 11.9-16.3 17.3-24.9 3.3-4.5 7.8-9.3 10-14.5-9.4 4.8-18.1 10.8-27.4 15.9-7-3.8-20.5-13.6-27.1-15.4 2.4 4.9 6.1 9.4 9.3 13.8 6 8.3 12.1 16.6 17.9 25.1z"/>
	<path class="s0" d="m27 17.7c16-0.5 34.9-1.7 50.4 2.9 7.2 2.2 13.8 6.4 17.3 13.2 3.4 6.7 3.7 16 1.2 23.1-2.8 8-9.1 12-16.4 15.6 5.1 1.4 9.6 2.8 13.7 6.3 5.7 4.9 8.5 11.9 9 19.1 0.6 9.2-2 16.9-8.1 23.8q-0.2 0.3-0.5 0.5c-13.2 12.9-36 10.3-52.8 10l-28.8-0.2v-114zm18.1 88.7c7 0.2 13 0.5 19.8-2.2 2.2-2.1 4.7-5.1 4.8-8.4 0-2-1-3.7-2.5-5-4.9-4.4-13.3-5-19.7-4.6-0.8 0.3-1.6 0.2-2 1.1-1.6 3.9-0.5 14.4-0.4 19.1zm0-43.4c6.6 0 12 0.1 18-3.1 1.7-2.6 4.1-6.4 3.1-9.6-0.7-2.2-2.3-3.6-4.3-4.6-5.4-2.6-11.1-1.8-16.8-2.2z"/>
	<path class="s0" d="m498.5 18.2c8.6-0.3 17.2-0.2 25.8-0.2 14.4 0 30.7-1.5 44.3 4.2 8.9 3.8 15.9 10.2 19.4 19.3 3.5 8.8 3.5 19.3-0.4 27.9-4.1 9.1-11.9 14.8-21 18.2 4.1 7.8 8.9 15.3 13.5 22.9 4.4 7.2 8.6 14.6 13.5 21.5q-10.4 0.3-20.7 0.3c-5.9-0.1-11.8 0.1-17.7-0.2-4.2-7.2-7.8-14.7-11.9-22.1-3.7-6.7-7.8-13.1-11.2-20-0.9 13.9-0.1 28.3-0.1 42.3-10.9 0.7-22.5 0.3-33.5-0.2l-0.2-61.2c-0.1-17.5-0.7-35.2 0.2-52.7zm54.1 48.7c3-3.5 4.4-5.9 4-10.7-0.3-3.5-1.5-6.8-4.4-9-5.3-4.2-13.7-3.3-20.1-3.1 0 5.6-0.7 21.4 0.9 25.8 1.8 1.5 4.1 1.3 6.3 1.1 4.5-0.4 9.5-1.5 13.3-4.1z"/>
	<path class="s0" d="m675.5 18.2c8.9-0.2 17.9-0.6 26.7 0.4 12.5 18.7 25.8 36.9 38.2 55.7 0.2-18.8-0.4-37.5-0.4-56.3 10.9 0 21.7 0.2 32.5 0.1v64.5c-0.2 16.5-0.6 32.9-0.2 49.3-9 0.6-18.1 0.8-27.1 0.5-12.7-18.8-26.5-37.3-38.2-56.9v56.6c-10.4 0-21.1 0.9-31.4-0.1-0.5-37.9-0.1-75.9-0.1-113.8z"/>
	<path class="s0" d="m472 17.7c6.5 0.2 13.1 0.4 19.7 0.9-12.3 17.6-23.7 35.5-34.9 53.8 4.8 6.8 8.7 14.3 13 21.4q11.6 19 22.9 38.2c-12.7 0.7-26.1 1.2-38.7 0.1-9.1-15.8-18.4-31.7-26.5-48 0.7 7.8 0.5 15.8 0.4 23.7l0.1 24.2q-16.8-0.1-33.6 0.4v-74.3c0-13.2-1-26.7 0.5-39.8 10.9-0.8 22 0.7 33.1-0.3 0 6.4 0.6 12.9 0.5 19.3-0.1 8.4-0.9 16.8-0.6 25.3l25.4-44c6.2-0.6 12.4-0.7 18.7-0.9z"/>
	<path class="s0" d="m597.5 18.2c8-0.4 16.2 0.1 24.2 0.1l46.2 0.2 0.1 26.5-37.5 0.1c0 5.8 0.1 11.5 0.1 17.3q15.5-0.3 30.9 0.3c-0.1 8.1 0 16.3 0 24.4l-31 0.1v16.8l0.6 0.7c10.3 2.3 27.8 0.5 38.8 0.4 0.1 9-0.2 17.9 0 26.9-15.5 0.2-31.1 0-46.7 0-8.5 0-17.2 0.6-25.7 0.1l-0.1-71c-0.1-14.3-0.9-28.7 0.1-42.9z"/>
	<path class="s0" d="m351.8 15.7c12.7-1.8 24.4 2.6 35.4 8.4 0.6 11.2 1.4 22.3-1.2 33.4-4.7-3.1-9.4-6.6-14.6-8.9-7.1-3.2-16.4-3.5-23.6-0.5-6.1 2.4-10.6 7.1-13.1 13.1-3.4 8.5-3.2 19.3 0.5 27.7 2.7 6.1 7.5 11 13.9 13.4 7.3 2.7 16.9 2.4 23.9-1.3 4.4-2.3 8.3-5.4 13-7.4l0.7-0.4c1.8 5.6 1.4 10.9 0.9 16.7l-0.2 16.6c-5.6 3.7-11.5 6.2-18.1 7.2-16.8 2.4-35.7-1.1-49.5-11.3-12.1-9.1-19.5-22.6-21.6-37.5-2.3-16.6 1.2-34.7 11.5-48.1 10.5-13.8 25.5-19 42.1-21.1z"/>
	<path class="s0" d="m776.5 18.4c27.3-0.7 54.9-0.9 82.1 0 0.4 9.1 0.4 18.2-0.1 27.3-8.1 0.4-16.3 0.2-24.4 0.3-2.3 13.8-0.3 31.9-0.3 46.4v25.5c0 4.5-0.4 9.4 0.3 13.8l-0.4 0.6c-10.7-0.2-21.9-1.2-32.6 0.2-0.4-28.8-0.1-57.6-0.1-86.4-7.9 0-15.9 0.1-23.8-0.2-1.7-9.1-1-18.3-0.7-27.5z"/>
	<path class="s0" d="m834.1 131.7c-0.7-4.4-0.3-9.3-0.3-13.8v-25.5c0-14.5-2-32.6 0.3-46.4 1 5.9 0.5 12.4 0.5 18.4l-0.2 29.6v23.9c0 4.5 0.3 9.3-0.3 13.8z"/>
</svg>